<svg width="10" height="17" viewBox="0 0 10 17" fill="none" xmlns="http://www.w3.org/2000/svg">
    <path d="M2.01558 0.537645L9.38746 7.88765C9.47496 7.97515 9.53679 8.06994 9.57296 8.17202C9.60971 8.2741 9.62808 8.38348 9.62808 8.50015C9.62808 8.61681 9.60971 8.72619 9.57296 8.82827C9.53679 8.93035 9.47496 9.02515 9.38746 9.11265L2.01558 16.4845C1.81142 16.6887 1.55621 16.7908 1.24996 16.7908C0.943707 16.7908 0.681208 16.6814 0.462458 16.4626C0.243708 16.2439 0.134333 15.9887 0.134333 15.697C0.134333 15.4054 0.243708 15.1501 0.462458 14.9314L6.89371 8.50015L0.462458 2.0689C0.258291 1.86473 0.156207 1.61331 0.156207 1.31465C0.156207 1.0154 0.265582 0.756395 0.484332 0.537645C0.703082 0.318895 0.958291 0.20952 1.24996 0.20952C1.54162 0.20952 1.79683 0.318895 2.01558 0.537645Z"
          fill="#6B7376"/>
</svg>
