<svg width="31" height="32" viewBox="0 0 31 32" fill="none" xmlns="http://www.w3.org/2000/svg">
    <path d="M26.875 28.2915H4.125V11.3332H26.875M22 0.541504V3.62484H9V0.541504H5.75V3.62484H4.125C2.32125 3.62484 0.875 4.99692 0.875 6.70817V28.2915C0.875 29.1093 1.21741 29.8935 1.8269 30.4718C2.4364 31.05 3.26305 31.3748 4.125 31.3748H26.875C27.737 31.3748 28.5636 31.05 29.1731 30.4718C29.7826 29.8935 30.125 29.1093 30.125 28.2915V6.70817C30.125 5.89042 29.7826 5.10616 29.1731 4.52792C28.5636 3.94969 27.737 3.62484 26.875 3.62484H25.25V0.541504"
          fill="#fff"/>
</svg>
