<svg width="44" height="44" viewBox="0 0 44 44" fill="none" xmlns="http://www.w3.org/2000/svg">
<circle cx="22" cy="22" r="22" fill="#4CE465"/>
<path d="M26.0951 10.8821C24.4615 10.8821 22.981 11.1821 21.8239 11.7473C20.6677 12.3126 19.7174 13.2332 19.7174 14.4538V18.0255C19.7174 18.1407 19.7566 18.2523 19.7748 18.3604C18.8628 18.1332 17.9251 18.0207 16.9841 18.0255C15.3505 18.0255 13.87 18.3255 12.7129 18.8908C11.5567 19.456 10.6064 20.3766 10.6064 21.5972V28.7407C10.6064 29.9613 11.5567 30.8819 12.7138 31.4471C13.87 32.0123 15.3505 32.3124 16.9841 32.3124C18.6177 32.3124 20.0982 32.0123 21.2553 31.4471C22.4106 30.8819 23.3618 29.9613 23.3618 28.7407V28.3781C24.2531 28.6143 25.1719 28.7361 26.0951 28.7407C27.7287 28.7407 29.2093 28.4406 30.3664 27.8754C31.5217 27.3102 32.4728 26.3896 32.4728 25.1689V14.4538C32.4728 13.2332 31.5226 12.3126 30.3655 11.7473C29.2102 11.1821 27.7296 10.8821 26.0951 10.8821ZM26.0951 12.6679C27.4827 12.6679 28.7182 12.9608 29.54 13.3653C30.3627 13.7698 30.6506 14.1957 30.6506 14.4538C30.6506 14.7127 30.3627 15.1378 29.54 15.5423C28.7191 15.9468 27.4827 16.2397 26.0951 16.2397C24.7075 16.2397 23.4721 15.9468 22.6502 15.5423C21.8275 15.1378 21.5396 14.7119 21.5396 14.4538C21.5396 14.1948 21.8275 13.7698 22.6502 13.3653C23.4711 12.9608 24.7075 12.6679 26.0951 12.6679ZM21.5396 16.9933C21.6353 17.0451 21.7246 17.112 21.8248 17.1603C22.981 17.7255 24.4615 18.0255 26.0951 18.0255C27.7287 18.0255 29.2093 17.7255 30.3664 17.1603C30.4657 17.112 30.555 17.0451 30.6506 16.9933V18.0255C30.6506 18.2845 30.3627 18.7095 29.54 19.114C28.7182 19.5185 27.4827 19.8114 26.0951 19.8114C24.7075 19.8114 23.4721 19.5185 22.6502 19.114C21.8275 18.7095 21.5396 18.2836 21.5396 18.0255V16.9933ZM16.9841 19.8114C18.3717 19.8114 19.6072 20.1042 20.429 20.5087C21.2517 20.9132 21.5396 21.3392 21.5396 21.5972C21.5396 21.8562 21.2517 22.2812 20.429 22.6857C19.6072 23.0902 18.3717 23.3831 16.9841 23.3831C15.5965 23.3831 14.361 23.0902 13.5392 22.6857C12.7165 22.2812 12.4286 21.8553 12.4286 21.5972C12.4286 21.3383 12.7165 20.9132 13.5392 20.5087C14.3601 20.1042 15.5965 19.8114 16.9841 19.8114ZM30.6506 20.565V21.5972C30.6506 21.8562 30.3627 22.2812 29.54 22.6857C28.7182 23.0902 27.4827 23.3831 26.0951 23.3831C25.167 23.388 24.2441 23.2466 23.3618 22.9643V21.5972C23.3618 21.482 23.3226 21.3704 23.3044 21.2624C24.1517 21.4785 25.0911 21.5972 26.0951 21.5972C27.7287 21.5972 29.2093 21.2972 30.3664 20.732C30.4657 20.6838 30.555 20.6168 30.6506 20.565ZM12.4286 24.1367C12.5243 24.1885 12.6135 24.2555 12.7138 24.3037C13.87 24.8689 15.3505 25.1689 16.9841 25.1689C18.6177 25.1689 20.0982 24.8689 21.2553 24.3037C21.3547 24.2555 21.4439 24.1885 21.5396 24.1367V25.1689C21.5396 25.4279 21.2517 25.8529 20.429 26.2574C19.6072 26.6619 18.3717 26.9548 16.9841 26.9548C15.5965 26.9548 14.361 26.6619 13.5392 26.2574C12.7165 25.8529 12.4286 25.427 12.4286 25.1689V24.1367ZM30.6506 24.1367V25.1689C30.6506 25.4279 30.3627 25.8529 29.54 26.2574C28.7182 26.6619 27.4827 26.9548 26.0951 26.9548C25.0592 26.9548 24.1235 26.8119 23.3618 26.5637V24.8341C24.1982 25.0502 25.1093 25.1689 26.0951 25.1689C27.7287 25.1689 29.2093 24.8689 30.3664 24.3037C30.4657 24.2555 30.555 24.1885 30.6506 24.1367ZM12.4286 27.7084C12.5243 27.7602 12.6135 27.8272 12.7138 27.8754C13.87 28.4406 15.3505 28.7407 16.9841 28.7407C18.6177 28.7407 20.0982 28.4406 21.2553 27.8754C21.3547 27.8272 21.4439 27.7602 21.5396 27.7084V28.7407C21.5396 28.9996 21.2517 29.4246 20.429 29.8291C19.6072 30.2336 18.3717 30.5265 16.9841 30.5265C15.5965 30.5265 14.361 30.2336 13.5392 29.8291C12.7165 29.4246 12.4286 28.9987 12.4286 28.7407V27.7084Z" fill="white"/>
</svg>
