<svg width="44" height="44" viewBox="0 0 44 44" fill="none" xmlns="http://www.w3.org/2000/svg">
<circle cx="22" cy="22" r="22" fill="#404040"/>
<path d="M30.9915 17.1754C31.1786 16.9467 31.3188 16.6834 31.4042 16.4005C31.4895 16.1176 31.5183 15.8207 31.4889 15.5266C31.4595 15.2326 31.3725 14.9473 31.2328 14.6869C31.0931 14.4265 30.9035 14.1962 30.6748 14.0091C30.4461 13.822 30.1828 13.6817 29.8999 13.5964C29.617 13.511 29.3201 13.4823 29.0261 13.5117C28.732 13.5411 28.4467 13.6281 28.1863 13.7678C27.9259 13.9075 27.6956 14.0971 27.5085 14.3258L18.7493 25.0313L15.975 22.95C15.7386 22.7727 15.4696 22.6437 15.1834 22.5704C14.8972 22.4971 14.5993 22.4808 14.3068 22.5226C14.0143 22.5644 13.7329 22.6634 13.4786 22.814C13.2244 22.9645 13.0023 23.1636 12.825 23.4C12.6477 23.6364 12.5187 23.9054 12.4454 24.1916C12.3721 24.4778 12.3558 24.7757 12.3976 25.0682C12.482 25.659 12.7976 26.192 13.275 26.55L16.9121 29.2781C17.6084 29.8005 18.4797 30.0336 19.3438 29.9288C20.2079 29.824 20.9981 29.3893 21.5494 28.7156L30.9915 17.1754Z" stroke="white" stroke-width="2.25" stroke-linecap="round"/>
</svg>
