<svg width="25" height="31" viewBox="0 0 25 31" fill="none" xmlns="http://www.w3.org/2000/svg">
    <path fill-rule="evenodd" clip-rule="evenodd"
          d="M9.17855 0C8.59129 0 8.02808 0.23329 7.61282 0.648549C7.19756 1.06381 6.96427 1.62702 6.96427 2.21429V3.33471C6.96778 3.91967 7.20262 4.47948 7.6175 4.89187C8.03238 5.30426 8.59358 5.53572 9.17855 5.53571H15.8214C16.4087 5.53571 16.9719 5.30242 17.3871 4.88717C17.8024 4.47191 18.0357 3.90869 18.0357 3.32143V2.21429C18.0357 1.62702 17.8024 1.06381 17.3871 0.648549C16.9719 0.23329 16.4087 0 15.8214 0L9.17855 0ZM4.74998 2.21429H3.64284C2.76194 2.21429 1.91712 2.56422 1.29424 3.18711C0.671346 3.81 0.321411 4.65482 0.321411 5.53571V27.6786C0.321411 28.5595 0.671346 29.4043 1.29424 30.0272C1.91712 30.6501 2.76194 31 3.64284 31H21.3571C22.238 31 23.0828 30.6501 23.7057 30.0272C24.3286 29.4043 24.6786 28.5595 24.6786 27.6786V5.53571C24.6786 4.65482 24.3286 3.81 23.7057 3.18711C23.0828 2.56422 22.238 2.21429 21.3571 2.21429H20.25V3.32143C20.25 4.49596 19.7834 5.62238 18.9529 6.4529C18.1224 7.28342 16.9959 7.75 15.8214 7.75H9.17855C8.00402 7.75 6.8776 7.28342 6.04708 6.4529C5.21656 5.62238 4.74998 4.49596 4.74998 3.32143V2.21429ZM7.0462 14.5456C7.03449 14.3177 7.06928 14.0897 7.14846 13.8756C7.22763 13.6615 7.34954 13.4658 7.50675 13.3003C7.66396 13.1348 7.8532 13.003 8.06295 12.913C8.2727 12.8229 8.49858 12.7765 8.72684 12.7765C8.9551 12.7765 9.18098 12.8229 9.39073 12.913C9.60048 13.003 9.78972 13.1348 9.94693 13.3003C10.1041 13.4658 10.226 13.6615 10.3052 13.8756C10.3844 14.0897 10.4192 14.3177 10.4075 14.5456C10.3854 14.9765 10.1986 15.3823 9.88589 15.6794C9.57313 15.9765 9.15822 16.1422 8.72684 16.1422C8.29546 16.1422 7.88055 15.9765 7.56779 15.6794C7.25504 15.3823 7.06832 14.9765 7.0462 14.5456ZM8.72684 10.0949C7.54644 10.0949 6.41438 10.5638 5.57971 11.3985C4.74504 12.2332 4.27613 13.3652 4.27613 14.5456C4.27613 15.726 4.74504 16.8581 5.57971 17.6928C6.41438 18.5274 7.54644 18.9964 8.72684 18.9964C9.90724 18.9964 11.0393 18.5274 11.874 17.6928C12.7086 16.8581 13.1776 15.726 13.1776 14.5456C13.1776 13.3652 12.7086 12.2332 11.874 11.3985C11.0393 10.5638 9.90724 10.0949 8.72684 10.0949ZM20.0197 19.6872C20.1482 19.8157 20.2502 19.9683 20.3198 20.1362C20.3894 20.3042 20.4252 20.4842 20.4252 20.6659C20.4252 20.8477 20.3894 21.0277 20.3198 21.1956C20.2502 21.3635 20.1482 21.5161 20.0197 21.6446L18.2261 23.436L20.0153 25.2229C20.1438 25.3515 20.2457 25.504 20.3153 25.672C20.3849 25.8399 20.4207 26.0199 20.4207 26.2016C20.4207 26.3834 20.3849 26.5634 20.3153 26.7313C20.2457 26.8992 20.1438 27.0518 20.0153 27.1804C19.8867 27.3089 19.7342 27.4108 19.5662 27.4804C19.3983 27.55 19.2183 27.5858 19.0366 27.5858C18.8548 27.5858 18.6748 27.55 18.5069 27.4804C18.339 27.4108 18.1864 27.3089 18.0578 27.1804L16.2709 25.3912L14.484 27.1804C14.3555 27.3089 14.2029 27.4108 14.0349 27.4804C13.867 27.55 13.687 27.5858 13.5053 27.5858C13.3235 27.5858 13.1435 27.55 12.9756 27.4804C12.8077 27.4108 12.6551 27.3089 12.5266 27.1804C12.398 27.0518 12.2961 26.8992 12.2265 26.7313C12.157 26.5634 12.1212 26.3834 12.1212 26.2016C12.1212 26.0199 12.157 25.8399 12.2265 25.672C12.2961 25.504 12.398 25.3515 12.5266 25.2229L14.3135 23.436L12.5221 21.6424C12.3875 21.5153 12.2797 21.3625 12.2051 21.193C12.1306 21.0235 12.0909 20.8407 12.0882 20.6556C12.0856 20.4704 12.1202 20.2866 12.1899 20.1151C12.2596 19.9435 12.363 19.7877 12.494 19.6568C12.625 19.526 12.781 19.4227 12.9526 19.3532C13.1242 19.2837 13.3081 19.2494 13.4932 19.2522C13.6784 19.2551 13.861 19.295 14.0305 19.3697C14.1999 19.4444 14.3526 19.5524 14.4796 19.6872L16.2709 21.4786L18.0623 19.685C18.1908 19.5565 18.3434 19.4545 18.5113 19.3849C18.6792 19.3153 18.8592 19.2795 19.041 19.2795C19.2228 19.2795 19.4027 19.3153 19.5707 19.3849C19.7386 19.4545 19.8912 19.5587 20.0197 19.6872Z"
          fill="#fff"/>
</svg>
