<svg width="30" height="30" viewBox="0 0 30 30" fill="none" xmlns="http://www.w3.org/2000/svg">
    <path d="M15.3634 14.8182C13.3634 14.8182 11.6512 14.106 10.227 12.6818C8.80275 11.2576 8.09063 9.54543 8.09063 7.54543C8.09063 5.54543 8.80275 3.83331 10.227 2.40907C11.6512 0.984827 13.3634 0.272705 15.3634 0.272705C17.3634 0.272705 19.0755 0.984827 20.4997 2.40907C21.924 3.83331 22.6361 5.54543 22.6361 7.54543C22.6361 9.54543 21.924 11.2576 20.4997 12.6818C19.0755 14.106 17.3634 14.8182 15.3634 14.8182ZM4.45427 29.3636C3.45427 29.3636 2.59851 29.0079 1.88699 28.2963C1.17426 27.5836 0.817902 26.7272 0.817902 25.7272V24.2727C0.817902 23.2424 1.08336 22.2951 1.61427 21.4309C2.14396 20.5679 2.8482 19.9091 3.72699 19.4545C5.60578 18.5151 7.51487 17.8103 9.45426 17.34C11.3937 16.8709 13.3634 16.6363 15.3634 16.6363C17.3634 16.6363 19.3331 16.8709 21.2724 17.34C23.2118 17.8103 25.1209 18.5151 26.9997 19.4545C27.8785 19.9091 28.5828 20.5679 29.1124 21.4309C29.6434 22.2951 29.9088 23.2424 29.9088 24.2727V25.7272C29.9088 26.7272 29.5531 27.5836 28.8415 28.2963C28.1288 29.0079 27.2724 29.3636 26.2724 29.3636H4.45427Z"
          fill="#fff"/>
</svg>
