<svg width="44" height="44" viewBox="0 0 44 44" fill="none" xmlns="http://www.w3.org/2000/svg">
<circle cx="22" cy="22" r="22" fill="#404040"/>
<path d="M29.5833 29.5833H14.4167V17.6666H29.5833M26.3333 10.0833V12.2499H17.6667V10.0833H15.5V12.2499H14.4167C13.2142 12.2499 12.25 13.2141 12.25 14.4166V29.5833C12.25 30.1579 12.4783 30.709 12.8846 31.1153C13.2909 31.5216 13.842 31.7499 14.4167 31.7499H29.5833C30.158 31.7499 30.7091 31.5216 31.1154 31.1153C31.5217 30.709 31.75 30.1579 31.75 29.5833V14.4166C31.75 13.8419 31.5217 13.2908 31.1154 12.8845C30.7091 12.4782 30.158 12.2499 29.5833 12.2499H28.5V10.0833" fill="white"/>
</svg>
